<?xml version="1.0" standalone="no"?>
<!DOCTYPE svg PUBLIC "-//W3C//DTD SVG 20010904//EN"
 "http://www.w3.org/TR/2001/REC-SVG-20010904/DTD/svg10.dtd">
<svg version="1.0" xmlns="http://www.w3.org/2000/svg"
 width="96.000000pt" height="82.000000pt" viewBox="0 0 96.000000 82.000000"
 preserveAspectRatio="xMidYMid meet">
<metadata>
Created by potrace 1.16, written by Peter Selinger 2001-2019
</metadata>
<g transform="translate(0.000000,82.000000) scale(0.100000,-0.100000)"
fill="#1763d3" stroke="none">
<path d="M556 737 c-12 -9 -18 -30 -20 -75 -3 -59 -6 -66 -44 -105 -23 -24
-42 -46 -42 -50 0 -4 18 -7 41 -7 32 0 42 -4 46 -19 8 -32 48 -41 187 -41 178
0 171 -6 171 155 0 114 -2 128 -19 141 -27 19 -294 20 -320 1z"/>
<path d="M70 710 c-12 -8 -16 -53 -20 -267 -5 -257 -5 -258 -28 -268 -19 -8
-22 -16 -20 -50 l3 -40 420 -3 c231 -1 430 0 442 3 42 10 42 81 0 87 -21 3
-22 8 -25 116 -1 61 -7 112 -12 112 -5 0 -11 -51 -12 -112 l-3 -113 -340 -5
c-187 -3 -287 -6 -223 -8 64 -1 119 -6 122 -11 4 -5 113 -7 256 -3 l250 5 0
-21 c0 -14 -8 -24 -22 -27 -13 -3 -207 -4 -433 -3 l-410 3 0 25 c0 22 5 26 39
30 34 4 37 7 23 18 -14 12 -16 45 -16 243 0 126 4 241 9 254 l10 25 205 0
c130 0 205 4 205 10 0 13 -399 13 -420 0z"/>
<path d="M107 653 c-10 -9 -8 -415 1 -431 7 -9 81 -12 338 -10 l329 3 3 95 c2
63 -1 91 -7 85 -6 -6 -11 -44 -13 -85 l-3 -75 -125 0 -124 0 -11 45 c-9 40
-16 48 -60 71 -55 28 -64 47 -41 81 9 12 16 41 16 64 0 81 -82 123 -135 69
-29 -28 -34 -89 -10 -135 20 -38 12 -54 -35 -75 -52 -23 -68 -42 -72 -85 -2
-23 -8 -35 -18 -35 -13 0 -15 29 -15 200 l0 200 183 3 c110 1 182 6 182 12 0
11 -372 14 -383 3z m267 -105 c50 -70 -25 -167 -86 -111 -23 21 -24 89 -1 115
23 25 68 23 87 -4z m-74 -230 l30 -22 23 22 c13 12 36 22 51 22 34 0 76 -41
76 -73 0 -32 -30 -45 -37 -17 -7 26 -19 26 -26 0 -5 -18 -14 -20 -91 -20 -79
0 -86 2 -86 20 0 26 -16 26 -23 -1 -9 -32 -32 -17 -35 24 -3 30 1 38 25 51 39
21 59 20 93 -6z"/>
</g>
</svg>
