<?xml version="1.0" standalone="no"?>
<!DOCTYPE svg PUBLIC "-//W3C//DTD SVG 20010904//EN"
 "http://www.w3.org/TR/2001/REC-SVG-20010904/DTD/svg10.dtd">
<svg version="1.0" xmlns="http://www.w3.org/2000/svg"
 width="104.000000pt" height="98.000000pt" viewBox="0 0 104.000000 98.000000"
 preserveAspectRatio="xMidYMid meet">
<metadata>
Created by potrace 1.16, written by Peter Selinger 2001-2019
</metadata>
<g transform="translate(0.000000,98.000000) scale(0.100000,-0.100000)"
fill="#1763d3" stroke="none">
<path d="M118 823 c-3 -25 -7 -28 -45 -31 l-43 -3 0 -270 0 -269 235 0 235 0
0 -55 0 -56 33 6 c32 6 33 5 56 -52 31 -76 33 -78 70 -59 37 19 37 21 11 81
-27 63 -26 81 6 89 20 5 24 10 15 19 -6 6 -11 15 -11 19 0 4 56 8 124 8 98 0
125 3 129 14 9 23 8 458 -1 491 -7 25 -14 30 -44 33 -20 2 -42 10 -48 18 -18
20 -158 20 -166 -1 -4 -9 -19 -15 -40 -15 -22 0 -37 6 -40 15 -5 11 -23 15
-74 15 -49 0 -71 4 -80 15 -9 11 -27 15 -59 13 -39 -3 -46 -6 -51 -28 -4 -19
-13 -26 -37 -28 -28 -3 -32 0 -35 25 -3 27 -5 28 -70 31 -66 3 -67 3 -70 -25z
m302 -274 l0 -280 -32 3 -33 3 -3 277 -2 277 27 3 c16 2 31 2 36 0 4 -2 7
-129 7 -283z m490 -30 l0 -250 -32 3 -33 3 -3 248 -2 247 35 0 35 0 0 -251z
m-332 37 c1 -111 -1 -183 -8 -190 -6 -6 -17 -3 -33 12 -31 29 -35 28 -39 -10
-3 -35 -33 -51 -49 -26 -10 16 -12 382 -2 392 4 4 34 6 68 4 l60 -3 3 -179z
m-463 -36 l0 -185 -29 -3 c-16 -2 -32 2 -37 10 -10 16 -12 352 -2 362 4 4 21
6 38 4 l30 -3 0 -185z m213 3 l-3 -188 -30 0 -30 0 -3 175 c-1 96 0 180 2 187
3 7 19 13 36 13 l30 0 -2 -187z m337 -3 l0 -185 -32 -3 -33 -3 0 191 0 191 33
-3 32 -3 0 -185z m-430 15 l0 -140 -45 0 -45 0 -3 143 -3 143 48 -3 48 -3 0
-140z m583 3 l-3 -143 -60 0 -60 0 -3 143 -3 142 66 0 66 0 -3 -142z m-222
-240 c57 -55 64 -71 37 -86 -15 -9 -15 -14 6 -68 29 -77 30 -89 7 -89 -14 0
-27 17 -47 65 -15 36 -32 64 -36 63 -4 -1 -16 -5 -25 -8 -16 -7 -18 1 -18 84
0 60 4 91 11 91 6 0 35 -23 65 -52z"/>
</g>
</svg>
