<?xml version="1.0" standalone="no"?>
<!DOCTYPE svg PUBLIC "-//W3C//DTD SVG 20010904//EN"
 "http://www.w3.org/TR/2001/REC-SVG-20010904/DTD/svg10.dtd">
<svg version="1.0" xmlns="http://www.w3.org/2000/svg"
 width="51.000000pt" height="50.000000pt" viewBox="0 0 51.000000 50.000000"
 preserveAspectRatio="xMidYMid meet">
<metadata>
Created by potrace 1.16, written by Peter Selinger 2001-2019
</metadata>
<g transform="translate(0.000000,50.000000) scale(0.100000,-0.100000)"
fill="#1763d3" stroke="none">
<path d="M0 250 l0 -250 255 0 255 0 0 250 0 250 -255 0 -255 0 0 -250z m90
186 c0 -42 43 -69 77 -48 6 4 13 21 15 37 3 30 3 30 68 30 62 0 65 -1 68 -25
2 -14 9 -31 14 -37 25 -31 78 -2 78 43 0 24 13 30 44 18 14 -5 16 -33 16 -204
0 -171 -2 -199 -16 -204 -20 -8 -388 -8 -408 0 -14 5 -16 33 -16 203 0 109 3
201 7 204 3 4 17 7 30 7 18 0 23 -6 23 -24z"/>
<path d="M82 218 l3 -123 165 0 165 0 3 123 3 122 -171 0 -171 0 3 -122z"/>
</g>
</svg>
