<?xml version="1.0" standalone="no"?>
<!DOCTYPE svg PUBLIC "-//W3C//DTD SVG 20010904//EN"
 "http://www.w3.org/TR/2001/REC-SVG-20010904/DTD/svg10.dtd">
<svg version="1.0" xmlns="http://www.w3.org/2000/svg"
 width="81.000000pt" height="81.000000pt" viewBox="0 0 81.000000 81.000000"
 preserveAspectRatio="xMidYMid meet">
<metadata>
Created by potrace 1.16, written by Peter Selinger 2001-2019
</metadata>
<g transform="translate(0.000000,81.000000) scale(0.100000,-0.100000)"
fill="#1763d3" stroke="none">
<path d="M72 634 c-22 -15 -22 -18 -22 -279 0 -261 0 -264 22 -279 19 -14 66
-16 315 -16 200 0 300 4 318 12 l25 11 0 268 0 269 -25 16 c-27 18 -45 12 -45
-16 0 -27 -27 -50 -60 -50 -31 0 -50 23 -50 60 0 20 -4 20 -157 18 l-158 -3
-3 -25 c-5 -36 -20 -50 -53 -50 -34 0 -59 23 -59 56 0 28 -16 31 -48 8z m618
-334 l0 -190 -297 2 -298 3 -3 175 c-1 96 0 180 2 187 4 10 69 13 301 13 l295
0 0 -190z"/>
<path d="M231 397 c-28 -14 -34 -26 -22 -46 6 -10 13 -11 29 -2 26 14 69 14
77 1 8 -13 -11 -41 -69 -103 -25 -27 -46 -57 -46 -68 0 -17 8 -19 95 -19 95 0
95 0 95 25 0 23 -3 25 -50 25 -27 0 -50 3 -50 6 0 4 20 29 45 55 52 56 60 97
23 123 -27 19 -93 21 -127 3z"/>
<path d="M440 385 c0 -20 5 -25 25 -25 l25 0 0 -100 0 -100 30 0 30 0 0 125 0
125 -55 0 c-52 0 -55 -1 -55 -25z"/>
</g>
</svg>
