<?xml version="1.0" standalone="no"?>
<!DOCTYPE svg PUBLIC "-//W3C//DTD SVG 20010904//EN"
 "http://www.w3.org/TR/2001/REC-SVG-20010904/DTD/svg10.dtd">
<svg version="1.0" xmlns="http://www.w3.org/2000/svg"
 width="57.000000pt" height="59.000000pt" viewBox="0 0 57.000000 59.000000"
 preserveAspectRatio="xMidYMid meet">

<g transform="translate(0.000000,59.000000) scale(0.100000,-0.100000)"
fill="#1a62ce" stroke="none">
<path d="M213 480 c-41 -25 -53 -48 -53 -104 0 -38 -3 -46 -18 -46 -36 0 -42
-20 -42 -140 0 -77 4 -120 12 -128 17 -17 299 -17 316 0 8 8 12 51 12 128 0
120 -6 140 -42 140 -15 0 -18 8 -18 48 0 54 -17 85 -60 107 -39 20 -69 19
-107 -5z m117 -48 c12 -15 20 -40 20 -63 l0 -39 -80 0 -80 0 0 38 c0 88 89
129 140 64z m-35 -188 c10 -10 13 -23 9 -33 -4 -9 -10 -34 -13 -56 -4 -26 -11
-40 -21 -40 -10 0 -17 14 -21 40 -3 22 -9 47 -13 56 -7 16 16 49 34 49 5 0 16
-7 25 -16z"/>
</g>
</svg>
