<?xml version="1.0" standalone="no"?>
<!DOCTYPE svg PUBLIC "-//W3C//DTD SVG 20010904//EN"
 "http://www.w3.org/TR/2001/REC-SVG-20010904/DTD/svg10.dtd">
<svg version="1.0" xmlns="http://www.w3.org/2000/svg"
 width="82.000000pt" height="80.000000pt" viewBox="0 0 82.000000 80.000000"
 preserveAspectRatio="xMidYMid meet">
<metadata>
Created by potrace 1.16, written by Peter Selinger 2001-2019
</metadata>
<g transform="translate(0.000000,80.000000) scale(0.100000,-0.100000)"
fill="#1763d3" stroke="none">
<path d="M66 704 c-14 -13 -16 -58 -16 -334 0 -305 1 -320 19 -330 27 -14 615
-14 642 0 18 10 19 25 19 330 0 318 0 319 -22 334 -34 24 -619 24 -642 0z
m491 -134 c37 -22 60 -82 49 -127 -4 -16 -38 -58 -76 -95 -64 -64 -72 -68
-114 -68 -33 0 -52 6 -73 24 l-28 25 21 21 c20 21 23 21 53 5 30 -15 33 -15
60 4 43 31 91 89 91 111 0 32 -29 53 -64 45 -83 -17 -106 -17 -106 -2 0 9 17
29 37 46 45 37 101 41 150 11z m-144 -101 c12 -6 30 -19 40 -27 16 -15 16 -16
-4 -38 -20 -21 -23 -22 -45 -7 -34 22 -64 10 -117 -46 -52 -56 -56 -68 -28
-102 18 -22 21 -23 65 -11 53 14 96 16 96 4 0 -11 -50 -57 -77 -71 -62 -32
-142 6 -164 77 -13 47 -3 77 48 133 79 87 135 114 186 88z"/>
</g>
</svg>
