<?xml version="1.0" standalone="no"?>
<!DOCTYPE svg PUBLIC "-//W3C//DTD SVG 20010904//EN"
 "http://www.w3.org/TR/2001/REC-SVG-20010904/DTD/svg10.dtd">
<svg version="1.0" xmlns="http://www.w3.org/2000/svg"
 width="626.000000pt" height="483.000000pt" viewBox="0 0 626.000000 483.000000"
 preserveAspectRatio="xMidYMid meet">
<metadata>
Created by potrace 1.16, written by Peter Selinger 2001-2019
</metadata>
<g transform="translate(0.000000,483.000000) scale(0.100000,-0.100000)"
fill="#ffff" stroke="none">
<path d="M0 2415 l0 -2415 3130 0 3130 0 0 2415 0 2415 -3130 0 -3130 0 0
-2415z m3852 1605 c70 -123 128 -228 128 -232 0 -5 -301 -8 -669 -8 l-670 0
-107 -187 c-59 -104 -119 -208 -132 -233 l-25 -46 40 -69 c23 -39 54 -93 69
-121 16 -27 58 -101 93 -162 l64 -112 326 2 326 3 19 36 19 36 -24 44 -24 44
-277 3 -276 2 -48 83 c-26 45 -65 111 -86 146 l-38 65 32 55 c17 31 42 74 54
97 12 22 33 58 46 80 14 21 27 47 31 57 6 16 45 17 683 15 l677 -3 139 -244
c76 -135 137 -249 136 -255 -8 -28 -628 -1110 -641 -1118 -14 -9 -1191 -11
-1244 -2 -38 6 -39 8 -163 227 -69 121 -126 224 -128 229 -2 4 299 9 670 10
l673 3 127 220 c69 121 127 227 127 235 1 9 -55 114 -124 234 -69 121 -125
223 -125 228 0 4 -150 8 -333 8 l-334 0 -17 -39 c-18 -38 -18 -39 6 -80 l23
-41 277 0 276 0 65 -112 c35 -62 75 -131 87 -154 l23 -40 -40 -70 c-22 -38
-62 -106 -88 -151 l-47 -83 -671 0 -672 0 -46 83 c-26 45 -88 153 -139 241
-50 87 -92 166 -92 175 -1 9 81 160 182 336 101 176 188 329 194 340 86 156
252 442 260 447 6 4 297 7 646 5 l634 -2 128 -225z m-2457 -2474 c82 -21 127
-47 183 -104 l52 -53 0 -84 0 -85 -110 0 -109 0 -3 57 c-3 53 -6 59 -37 80
-44 30 -126 31 -180 3 -40 -20 -51 -36 -51 -75 0 -34 47 -58 180 -90 159 -38
250 -86 291 -151 15 -25 19 -50 19 -126 0 -90 -2 -97 -30 -136 -67 -93 -180
-142 -326 -142 -122 0 -218 35 -294 109 -41 39 -50 65 -50 154 l0 87 105 0
105 0 0 -58 c0 -48 4 -62 23 -79 53 -50 172 -50 225 -1 28 28 31 97 4 121 -10
10 -79 32 -154 51 -156 39 -206 62 -265 119 l-43 41 0 103 0 103 42 46 c51 55
106 88 178 108 70 19 180 20 245 2z m965 -86 l0 -90 -190 0 -190 0 0 -85 0
-85 178 -2 177 -3 0 -85 0 -85 -177 -3 -178 -2 0 -95 0 -95 195 0 195 0 0 -90
0 -90 -305 0 -305 0 0 445 0 445 293 3 c160 1 295 3 300 5 4 1 7 -38 7 -88z
m424 79 c2 -2 24 -44 51 -94 26 -49 89 -164 139 -255 l91 -165 5 258 c3 141 8
257 13 257 4 0 50 0 102 0 l95 0 0 -445 0 -446 -117 3 -117 3 -59 105 c-66
118 -122 221 -179 327 -21 40 -43 75 -48 78 -6 4 -10 -91 -10 -255 l0 -261
-102 3 -103 3 -3 435 c-1 239 0 440 2 445 3 9 232 13 240 4z m1276 -384 c107
-320 130 -400 130 -448 l0 -58 -97 3 -98 3 -39 118 -39 117 -126 0 -127 0 -38
-120 -39 -120 -88 0 -89 0 0 66 c0 57 16 113 125 441 69 207 127 379 129 382
2 3 63 6 135 6 l131 0 130 -390z m810 303 l0 -88 -115 0 -115 0 0 -360 0 -360
-110 0 -110 0 0 360 0 360 -120 0 -120 0 0 83 c0 46 2 86 4 88 2 2 158 4 345
4 l341 0 0 -87z m365 72 c2 -8 4 -208 2 -445 l-2 -430 -107 -3 -108 -3 0 448
0 448 105 0 c85 0 106 -3 110 -15z"/>
<path d="M3756 1173 c-20 -59 -36 -112 -36 -116 0 -4 33 -7 73 -5 58 2 71 6
68 18 -8 37 -60 202 -64 207 -3 2 -21 -44 -41 -104z"/>
</g>
</svg>
