<?xml version="1.0" standalone="no"?>
<!DOCTYPE svg PUBLIC "-//W3C//DTD SVG 20010904//EN"
 "http://www.w3.org/TR/2001/REC-SVG-20010904/DTD/svg10.dtd">
<svg version="1.0" xmlns="http://www.w3.org/2000/svg"
 width="83.000000pt" height="83.000000pt" viewBox="0 0 83.000000 83.000000"
 preserveAspectRatio="xMidYMid meet">
<metadata>
Created by potrace 1.16, written by Peter Selinger 2001-2019
</metadata>
<g transform="translate(0.000000,83.000000) scale(0.100000,-0.100000)"
fill="#1763d3" stroke="none">
<path d="M64 705 l-25 -25 3 -301 3 -301 24 -19 c22 -18 43 -19 318 -19 l294
0 24 25 25 24 0 296 0 296 -25 24 -24 25 -296 0 -296 0 -25 -25z m391 -107
c114 -89 11 -264 -119 -203 -61 29 -84 102 -51 165 31 59 118 79 170 38z m-3
-292 c115 -25 168 -63 168 -121 l0 -35 -232 2 -233 3 -3 26 c-4 30 28 73 70
95 23 12 119 38 158 43 3 0 35 -6 72 -13z"/>
</g>
</svg>
