<?xml version="1.0" standalone="no"?>
<!DOCTYPE svg PUBLIC "-//W3C//DTD SVG 20010904//EN"
 "http://www.w3.org/TR/2001/REC-SVG-20010904/DTD/svg10.dtd">
<svg version="1.0" xmlns="http://www.w3.org/2000/svg"
 width="81.000000pt" height="80.000000pt" viewBox="0 0 81.000000 80.000000"
 preserveAspectRatio="xMidYMid meet">

<g transform="translate(0.000000,80.000000) scale(0.100000,-0.100000)"
fill="#1a62ce" stroke="none">
<path d="M87 732 c-15 -16 -17 -54 -17 -323 0 -259 2 -308 16 -327 15 -22 20
-22 219 -22 l204 0 7 35 c5 28 1 40 -20 66 -45 53 -28 99 38 99 20 0 30 9 46
40 18 36 20 58 20 245 l0 205 -248 0 c-228 0 -250 -2 -265 -18z m418 -157 l0
-80 -164 -3 c-125 -2 -166 1 -173 10 -9 16 -11 142 -1 152 4 3 81 5 172 4
l166 -3 0 -80z m15 -169 c0 -7 -10 -16 -22 -20 -31 -8 -335 -3 -343 6 -22 22
17 28 186 28 146 0 179 -3 179 -14z m-170 -81 c0 -12 -17 -15 -95 -15 -78 0
-95 3 -95 15 0 12 17 15 95 15 78 0 95 -3 95 -15z"/>
<path d="M606 271 c-20 -31 -32 -39 -65 -45 -23 -3 -41 -10 -41 -14 0 -5 13
-21 30 -37 26 -25 29 -32 23 -71 -3 -24 -3 -44 0 -44 4 0 22 8 42 17 33 16 37
16 71 -1 44 -21 57 -11 45 32 -9 29 -6 37 21 68 35 39 28 54 -24 54 -22 0 -32
8 -48 40 -11 22 -23 40 -25 40 -3 0 -16 -17 -29 -39z"/>
</g>
</svg>
