<?xml version="1.0" standalone="no"?>
<!DOCTYPE svg PUBLIC "-//W3C//DTD SVG 20010904//EN"
 "http://www.w3.org/TR/2001/REC-SVG-20010904/DTD/svg10.dtd">
<svg version="1.0" xmlns="http://www.w3.org/2000/svg"
 width="49.000000pt" height="56.000000pt" viewBox="0 0 49.000000 56.000000"
 preserveAspectRatio="xMidYMid meet">

<g transform="translate(0.000000,56.000000) scale(0.100000,-0.100000)"
fill="#1a62ce" stroke="none">
<path d="M155 427 c-38 -38 -45 -73 -21 -118 13 -25 11 -28 -21 -54 -19 -15
-44 -46 -54 -69 -22 -50 -26 -136 -5 -136 9 0 16 18 20 53 8 61 33 108 72 134
36 23 122 23 157 0 34 -22 63 -79 72 -140 9 -58 35 -66 35 -11 0 77 -49 169
-100 186 -12 5 -13 9 -2 27 6 11 12 39 12 60 0 55 -32 90 -87 98 -39 5 -46 2
-78 -30z m119 -29 c22 -31 20 -58 -6 -85 -27 -28 -57 -29 -86 -3 -26 25 -29
66 -5 92 23 26 78 24 97 -4z"/>
</g>
</svg>
